<?xml version="1.0" encoding="UTF-8" standalone="no"?>
<svg
   xmlns:dc="http://purl.org/dc/elements/1.1/"
   xmlns:cc="http://creativecommons.org/ns#"
   xmlns:rdf="http://www.w3.org/1999/02/22-rdf-syntax-ns#"
   xmlns:svg="http://www.w3.org/2000/svg"
   xmlns="http://www.w3.org/2000/svg"
   xmlns:xlink="http://www.w3.org/1999/xlink"
   xmlns:sodipodi="http://sodipodi.sourceforge.net/DTD/sodipodi-0.dtd"
   xmlns:inkscape="http://www.inkscape.org/namespaces/inkscape"
   width="13.229167mm"
   height="13.229167mm"
   viewBox="0 0 13.229167 13.229167"
   version="1.1"
   id="svg8"
   inkscape:version="1.0 (4035a4fb49, 2020-05-01)"
   sodipodi:docname="figma.svg">
  <defs
     id="defs2">
    <linearGradient
       gradientUnits="userSpaceOnUse"
       id="WhiteTransparent">
      <stop
         id="stop7"
         offset="0"
         style="stop-color:white;stop-opacity:1" />
      <stop
         id="stop9"
         offset="1"
         style="stop-color:white;stop-opacity:0" />
    </linearGradient>
    <linearGradient
       gradientUnits="userSpaceOnUse"
       id="BlackTransparent">
      <stop
         id="stop12"
         offset="0"
         style="stop-color:black;stop-opacity:1" />
      <stop
         id="stop14"
         offset="1"
         style="stop-color:black;stop-opacity:0" />
    </linearGradient>
    <linearGradient
       gradientUnits="userSpaceOnUse"
       y2="64"
       x2="0"
       y1="128"
       x1="0"
       xlink:href="#BlackTransparent"
       id="liquidShade"
       gradientTransform="matrix(0.09833806,0,0,0.09833806,58.168849,0.74948923)" />
    <linearGradient
       gradientUnits="userSpaceOnUse"
       y2="76"
       x2="0"
       y1="128"
       x1="0"
       xlink:href="#WhiteTransparent"
       id="liquidSpecular" />
    <linearGradient
       gradientUnits="userSpaceOnUse"
       y2="40"
       x2="60"
       y1="20"
       x1="80"
       xlink:href="#WhiteTransparent"
       id="sideSpecular" />
    <linearGradient
       gradientUnits="userSpaceOnUse"
       y2="50"
       x2="90"
       y1="20"
       x1="60"
       xlink:href="#WhiteTransparent"
       id="IcecapTip"
       gradientTransform="matrix(0.09833806,0,0,0.09833806,58.168849,0.74948923)" />
    <linearGradient
       gradientUnits="userSpaceOnUse"
       y2="60"
       x2="58"
       y1="35"
       x1="33"
       xlink:href="#WhiteTransparent"
       id="shinySpecular"
       gradientTransform="matrix(0.09833806,0,0,0.09833806,58.168849,0.74948923)" />
    <clipPath
       id="clipoutline1"
       clipPathUnits="userSpaceOnUse">
      <path
         d="M 54.1,12.5 L 12.9,54.7 C -2.7,70.3 23,69 32.3,74.9 C 36.6,77.7 18.5,81.3 22.2,85 C 25.8,88.7 43.9,92.1 47.5,95.7 C 51.1,99.4 40.2,103.3 43.8,107 C 47.3,110.7 55.7,107.2 57.2,115.6 C 58.3,121.8 72.6,118.7 79,113.4 C 83,110 72.1,110 75.7,106.3 C 84.7,97.2 92.7,102.2 96,93.8 C 97.8,89.3 82.4,86.1 86.5,83.2 C 96.3,76.3 132.3,72.8 115.7,56.2 L 73,12.5 C 67.7,7.5 59,7.5 54.1,12.5 z M 44.2,77.2 C 45.1,77.2 75,81.2 63.5,84.3 C 59.1,85.5 38.9,77.2 44.2,77.2 z M 101.4,93.8 C 101.4,95.9 117.7,97.1 116.8,93.3 C 115.5,86.9 103.2,87.4 101.4,93.8 z M 31.9,104.9 C 35.6,108.1 41.2,104.2 43,99.7 C 39.4,95 26.1,100 31.9,104.9 z M 99.4,98.2 C 94.8,102.4 100.2,106.8 104.7,103.9 C 105.9,103.1 104.6,99.2 99.4,98.2 z "
         id="outline1" />
    </clipPath>
    <filter
       y="0"
       x="0"
       filterUnits="userSpaceOnUse"
       id="ShadowBlur">
      <feGaussianBlur
         id="feGaussianBlur24"
         result="blur"
         stdDeviation="3"
         in="SourceAlpha" />
    </filter>
    <filter
       y="0"
       x="0"
       filterUnits="userSpaceOnUse"
       id="ShadowBlur-3">
      <feGaussianBlur
         id="feGaussianBlur24-5"
         result="blur"
         stdDeviation="3"
         in="SourceAlpha" />
    </filter>
    <clipPath
       id="clipoutline1-6"
       clipPathUnits="userSpaceOnUse">
      <path
         d="M 54.1,12.5 12.9,54.7 C -2.7,70.3 23,69 32.3,74.9 36.6,77.7 18.5,81.3 22.2,85 c 3.6,3.7 21.7,7.1 25.3,10.7 3.6,3.7 -7.3,7.6 -3.7,11.3 3.5,3.7 11.9,0.2 13.4,8.6 1.1,6.2 15.4,3.1 21.8,-2.2 4,-3.4 -6.9,-3.4 -3.3,-7.1 9,-9.1 17,-4.1 20.3,-12.5 1.8,-4.5 -13.6,-7.7 -9.5,-10.6 9.8,-6.9 45.8,-10.4 29.2,-27 L 73,12.5 c -5.3,-5 -14,-5 -18.9,0 z m -9.9,64.7 c 0.9,0 30.8,4 19.3,7.1 -4.4,1.2 -24.6,-7.1 -19.3,-7.1 z m 57.2,16.6 c 0,2.1 16.3,3.3 15.4,-0.5 -1.3,-6.4 -13.6,-5.9 -15.4,0.5 z m -69.5,11.1 c 3.7,3.2 9.3,-0.7 11.1,-5.2 -3.6,-4.7 -16.9,0.3 -11.1,5.2 z m 67.5,-6.7 c -4.6,4.2 0.8,8.6 5.3,5.7 1.2,-0.8 -0.1,-4.7 -5.3,-5.7 z"
         id="outline1-2" />
    </clipPath>
  </defs>
  <sodipodi:namedview
     id="base"
     pagecolor="#ffffff"
     bordercolor="#666666"
     borderopacity="1.0"
     inkscape:pageopacity="0.0"
     inkscape:pageshadow="2"
     inkscape:zoom="5.6568543"
     inkscape:cx="50.09826"
     inkscape:cy="32.294367"
     inkscape:document-units="mm"
     inkscape:current-layer="layer1"
     inkscape:document-rotation="0"
     showgrid="false" />
  <metadata
     id="metadata5">
    <rdf:RDF>
      <cc:Work
         rdf:about="">
        <dc:format>image/svg+xml</dc:format>
        <dc:type
           rdf:resource="http://purl.org/dc/dcmitype/StillImage" />
        <dc:title></dc:title>
      </cc:Work>
    </rdf:RDF>
  </metadata>
  <g
     style="display:inline"
     inkscape:label="Layer 1"
     inkscape:groupmode="layer"
     id="layer1"
     transform="translate(-5.50737,-3.4897048)">
    <g
       id="g946"
       transform="matrix(0.10690007,0,0,0.10690007,-5.8642248,7.1681131)"
       style="display:inline">
      <ellipse
         ry="46.515999"
         rx="38.170834"
         cy="27.232136"
         cx="169.81279"
         id="path936"
         style="opacity:0.997427;fill:#000000;fill-opacity:1;stroke-width:6.43901" />
      <rect
         y="14.632232"
         x="137.75208"
         height="24.740685"
         width="30.551138"
         id="rect934"
         style="opacity:0.997427;fill:#a259ff;fill-opacity:1;stroke-width:7.40354" />
      <path
         style="fill:#18bafc;stroke-width:0.264583"
         d="m 177.80613,39.086847 c -6.00978,-1.180251 -10.33661,-7.367265 -9.3435,-13.360453 0.86008,-5.190456 4.76525,-9.095624 9.95571,-9.95571 7.6507,-1.267762 14.70422,5.785763 13.43646,13.436462 -1.11713,6.741637 -7.4282,11.179884 -14.04867,9.879701 z"
         id="path894" />
      <path
         style="fill:#fd7060;stroke-width:0.264583"
         d="M 168.25246,3.65427 V -8.25198 l 6.28386,0.0046 c 6.98105,0.0051 8.96193,0.270436 11.23307,1.504624 3.03881,1.651352 5.15346,4.495533 5.92677,7.971417 1.07963,4.852702 -1.19753,10.026484 -5.54286,12.593574 -2.49167,1.471994 -4.25901,1.738281 -11.53692,1.738281 h -6.36392 z"
         id="path892" />
      <path
         style="fill:#09ce82;stroke-width:0.264583"
         d="m 154.49413,62.911795 c -2.70469,-0.480422 -4.46874,-1.41773 -6.561,-3.486118 -3.17965,-3.143374 -4.19195,-7.878728 -2.61925,-12.252394 1.36728,-3.802369 5.13537,-6.891626 9.18025,-7.526382 0.94589,-0.148437 4.43988,-0.270783 7.76444,-0.271883 l 6.04465,-0.0021 -0.11366,7.077604 c -0.10085,6.279965 -0.17412,7.241604 -0.65013,8.532813 -1.56599,4.247866 -5.12215,7.266125 -9.34113,7.928202 -1.91106,0.2999 -2.01664,0.299903 -3.70417,1.56e-4 z"
         id="path890" />
      <path
         style="fill:#f04c1c;stroke-width:0.264583"
         d="m 153.78652,15.284157 c -4.10734,-0.812122 -7.81738,-4.455305 -8.97875,-8.8169402 -1.32614,-4.9804478 1.1676,-10.6852188 5.73501,-13.1196238 2.74055,-1.460699 3.65433,-1.592966 11.02895,-1.596432 l 6.68073,-0.0031 v 11.90625 11.90625 l -6.68073,-0.02899 c -3.6744,-0.01595 -7.17774,-0.127262 -7.78521,-0.247372 z M 191.82127,5.0874306 c 0.0127,-0.3082263 0.0754,-0.3709194 0.15985,-0.1598533 0.0764,0.1909948 0.067,0.4191979 -0.0209,0.5071189 -0.0879,0.087918 -0.15045,-0.068352 -0.13896,-0.3472656 z M 181.43202,-8.168136 c 0.191,-0.07643 0.4192,-0.06703 0.50712,0.02088 0.0879,0.08792 -0.0683,0.150453 -0.34727,0.138965 -0.30822,-0.0127 -0.37091,-0.07539 -0.15985,-0.159851 z"
         id="path888" />
      <path
         style="fill:#07ad6d;stroke-width:0.264583"
         d="m 154.69257,63.010292 c 0.1819,-0.0734 0.47956,-0.0734 0.66146,0 0.1819,0.0734 0.0331,0.133453 -0.33073,0.133453 -0.3638,0 -0.51263,-0.06005 -0.33073,-0.133453 z m 2.64583,0 c 0.1819,-0.0734 0.47956,-0.0734 0.66146,0 0.1819,0.0734 0.0331,0.133453 -0.33073,0.133453 -0.3638,0 -0.51263,-0.06005 -0.33073,-0.133453 z m -8.68513,-2.669043 -0.64143,-0.727604 0.7276,0.641432 c 0.68006,0.599517 0.84894,0.813776 0.64144,0.813776 -0.0474,0 -0.37482,-0.327422 -0.72761,-0.727604 z m 15.10128,0.06615 c 0.34177,-0.363802 0.68094,-0.661458 0.7537,-0.661458 0.0728,0 -0.14734,0.297656 -0.48912,0.661458 -0.34177,0.363802 -0.68094,0.661458 -0.7537,0.661458 -0.0728,0 0.14734,-0.297656 0.48912,-0.661458 z m -16.68878,-1.653646 -0.64143,-0.727604 0.7276,0.641432 c 0.68006,0.599517 0.84894,0.813776 0.64144,0.813776 -0.0474,0 -0.37482,-0.327422 -0.72761,-0.727604 z m 18.27628,0.06615 c 0.34177,-0.363802 0.68094,-0.661458 0.7537,-0.661458 0.0728,0 -0.14734,0.297656 -0.48912,0.661458 -0.34177,0.363802 -0.68094,0.661458 -0.7537,0.661458 -0.0728,0 0.14734,-0.297656 0.48912,-0.661458 z m -20.86031,-6.217708 c 0,-0.363802 0.0601,-0.512631 0.13345,-0.33073 0.0734,0.181902 0.0734,0.479558 0,0.661459 -0.0734,0.181901 -0.13345,0.03307 -0.13345,-0.330729 z m 23.54792,0 c 0,-0.363802 0.06,-0.512631 0.13345,-0.33073 0.0734,0.181902 0.0734,0.479558 0,0.661459 -0.0734,0.181901 -0.13345,0.03307 -0.13345,-0.330729 z m -23.54792,-2.645834 c 0,-0.363802 0.0601,-0.51263 0.13345,-0.330729 0.0734,0.181901 0.0734,0.479557 0,0.661458 -0.0734,0.181902 -0.13345,0.03307 -0.13345,-0.330729 z m 2.60406,-6.217708 c 0.34177,-0.363802 0.68094,-0.661458 0.7537,-0.661458 0.0728,0 -0.14734,0.297656 -0.48912,0.661458 -0.34177,0.363802 -0.68094,0.661458 -0.7537,0.661458 -0.0728,0 0.14734,-0.297656 0.48912,-0.661458 z m 1.5875,-1.5875 c 0.34177,-0.363802 0.68094,-0.661458 0.7537,-0.661458 0.0728,0 -0.14734,0.297656 -0.48912,0.661458 -0.34177,0.363802 -0.68094,0.661458 -0.7537,0.661458 -0.0728,0 0.14734,-0.297656 0.48912,-0.661458 z m 5.82083,-2.753355 c 0,-0.131897 0.23813,-0.177543 0.52917,-0.101433 0.29104,0.07611 0.52916,0.184026 0.52916,0.239813 0,0.05579 -0.23812,0.101433 -0.52916,0.101433 -0.29104,0 -0.52917,-0.107915 -0.52917,-0.239813 z m 27.20247,-0.20551 c 0.191,-0.07643 0.41921,-0.06703 0.50712,0.02088 0.0879,0.08792 -0.0684,0.150453 -0.34726,0.138965 -0.30823,-0.0127 -0.37092,-0.07539 -0.15986,-0.159851 z M 168.27335,29.164514 c 0.0127,-0.308226 0.0754,-0.370919 0.15985,-0.159853 0.0764,0.190994 0.067,0.419198 -0.0209,0.507119 -0.0879,0.08792 -0.15045,-0.06835 -0.13897,-0.347266 z m 23.54792,-3.439583 c 0.0127,-0.308227 0.0754,-0.37092 0.15985,-0.159854 0.0764,0.190995 0.067,0.419198 -0.0209,0.507119 -0.0879,0.08792 -0.15045,-0.06835 -0.13896,-0.347265 z M 178.25702,15.644364 c 0.191,-0.07643 0.4192,-0.06703 0.50712,0.02088 0.0879,0.08792 -0.0684,0.150453 -0.34727,0.138964 -0.30822,-0.0127 -0.37091,-0.07539 -0.15985,-0.15985 z"
         id="path886" />
      <path
         transform="scale(0.26458333)"
         d="M 635.91406,-130.05273 A 233.86337,233.86337 0 0 0 402.05078,103.81055 233.86337,233.86337 0 0 0 635.91406,337.67383 233.86337,233.86337 0 0 0 869.77734,103.81055 233.86337,233.86337 0 0 0 635.91406,-130.05273 Z m -0.67383,98.837886 c 25.94211,-0.07736 51.98454,0.261082 55.5625,1.085938 23.83953,5.495901 39.48956,30.23636588 34.05079,53.828125 -3.57899,15.524541 -17.273,29.914974 -31.74024,33.351562 -2.85914,0.67917 -5.19922,1.51961 -5.19922,1.869141 0,0.349549 1.68751,0.915463 3.75,1.257812 9.54554,1.584424 22.45283,11.00409 27.96289,20.40625 7.75854,13.23899 8.2209,30.635516 1.18164,44.433596 -2.76653,5.42292 -11.24473,14.32876 -16.66601,17.50586 -10.18398,5.9682 -23.13696,7.76539 -34.54883,4.79297 -8.1275,-2.11694 -13.221,-4.9593 -19.45117,-10.85157 -6.25614,-5.91677 -9.72226,-11.39892 -12.29688,-19.45117 l -1.82422,-5.70312 -0.0781,44 c -0.0471,26.50361 -0.48898,45.7894 -1.11328,48.5 -1.81826,7.89481 -6.82272,16.60774 -12.82813,22.33593 -6.4586,6.16044 -11.52486,9.02274 -19.76757,11.16993 -6.30495,1.6418 -15.647,1.80269 -21.73438,0.375 -11.27512,-2.64438 -24.41188,-12.73992 -29.46484,-22.64453 -4.68896,-9.19114 -6.27854,-21.49575 -4.03516,-31.23633 3.69668,-16.05095 18.65933,-31.22525 33.16406,-33.63282 4.66541,-0.77441 4.82285,-1.92996 0.35938,-2.65429 -5.6346,-0.91436 -14.29378,-5.57024 -19.85547,-10.67578 -22.00056,-20.19616 -18.88795,-54.712793 6.4082,-71.062504 3.12242,-2.018109 7.85062,-4.230238 10.50781,-4.917968 7.73976,-2.003211 8.08745,-2.303015 3.65625,-3.138672 -15.38706,-2.90177 -29.54211,-16.785167 -33.93554,-33.285157 -6.18429,-23.2257589 8.75106,-47.791165 32.97851,-54.242187 3.17345,-0.844982 29.01492,-1.338654 54.95703,-1.416016 z m 0.67383,90.025391 0.0664,19.25 c 0.0631,18.457281 0.12517,19.035116 1.48047,14.001953 2.07598,-7.70942 5.04237,-12.934747 10.80078,-19.023438 5.91677,-6.256108 11.39889,-9.722257 19.45117,-12.296874 l 5.70117,-1.822266 -18.75,-0.05469 z"
         style="fill:#000000;stroke-width:0.999999"
         id="path884" />
    </g>
  </g>
  <style
     id="style26"
     type="text/css">
	.specularity {opacity:0.5;}
	.low-specularity {opacity:0.25;}
	.full-specularity {opacity:1;}
	.black {fill:#000000;}
	.white {fill:#ffffff;}
	.outline-big {stroke-width:16;stroke:none;opacity:0.1;fill:none;}
	.outline-small {stroke-width:8;stroke:none;opacity:0.2;fill:none;}
	.stroke-highlight {fill:none;stroke:none;opacity:0.2;}
       	.base-shadow 	{fill:black;opacity:75;}
	</style>
</svg>
