<?xml version="1.0" encoding="UTF-8" standalone="no"?>
<svg
   xmlns:dc="http://purl.org/dc/elements/1.1/"
   xmlns:cc="http://creativecommons.org/ns#"
   xmlns:rdf="http://www.w3.org/1999/02/22-rdf-syntax-ns#"
   xmlns:svg="http://www.w3.org/2000/svg"
   xmlns="http://www.w3.org/2000/svg"
   xmlns:sodipodi="http://sodipodi.sourceforge.net/DTD/sodipodi-0.dtd"
   xmlns:inkscape="http://www.inkscape.org/namespaces/inkscape"
   sodipodi:docname="love-icon.svg"
   inkscape:version="1.0 (4035a4fb49, 2020-05-01)"
   id="svg8"
   version="1.1"
   viewBox="0 0 6.6145835 6.6145835"
   height="6.6145835mm"
   width="6.6145835mm">
  <defs
     id="defs2" />
  <sodipodi:namedview
     showgrid="false"
     inkscape:document-rotation="0"
     inkscape:current-layer="layer1"
     inkscape:document-units="mm"
     inkscape:cy="22.837091"
     inkscape:cx="28.691203"
     inkscape:zoom="4.8729071"
     inkscape:pageshadow="2"
     inkscape:pageopacity="0.0"
     borderopacity="1.0"
     bordercolor="#666666"
     pagecolor="#ffffff"
     id="base" />
  <metadata
     id="metadata5">
    <rdf:RDF>
      <cc:Work
         rdf:about="">
        <dc:format>image/svg+xml</dc:format>
        <dc:type
           rdf:resource="http://purl.org/dc/dcmitype/StillImage" />
        <dc:title></dc:title>
      </cc:Work>
    </rdf:RDF>
  </metadata>
  <g
     transform="translate(-1.5190794,0.89873153)"
     id="layer1"
     inkscape:groupmode="layer"
     inkscape:label="Layer 1">
    <path
       id="path849"
       d="M 4.7105686,5.1046015 C 4.3843226,4.7975724 4.0873956,4.5316998 3.5593816,4.0738132 3.0331876,3.6175048 2.9031226,3.5014688 2.7084486,3.3146652 2.0493532,2.6822158 1.808864,2.1964733 1.7643393,1.4077435 1.7425273,1.0213552 1.7898221,0.74625021 1.9255674,0.46991155 2.0057473,0.30668798 2.1020676,0.17550087 2.238804,0.04328692 c 0.2408221,-0.23285718 0.5467396,-0.37718831 0.8934686,-0.42153624 0.610726,-0.0781142 1.19444,0.18918557 1.586722,0.72660729 0.0268,0.0367162 0.06097,0.086394 0.07593,0.11039508 0.01496,0.0240011 0.02923,0.0428891 0.03171,0.0419733 0.0025,-9.1579e-4 0.02774,-0.0364931 0.05614,-0.0790607 0.256019,-0.38373743 0.619237,-0.65504299 1.01667,-0.75940294 0.455426,-0.11958788 0.948293,-0.0359331 1.326203,0.22509801 0.10691,0.073845 0.244612,0.20185553 0.325356,0.3024572 0.133059,0.16578485 0.241165,0.38664072 0.293084,0.59876039 0.04412,0.1802385 0.05819,0.37734179 0.04421,0.61916519 -0.03901,0.6750151 -0.216103,1.1098329 -0.656114,1.610976 -0.03184,0.036261 -0.12115,0.1292315 -0.198471,0.2066004 -0.201488,0.2016117 -0.349711,0.3361424 -0.811346,0.7363963 -0.640019,0.5549177 -0.941894,0.8244114 -1.28018,1.1428572 -0.06085,0.057286 -0.112968,0.1041562 -0.115809,0.1041562 -0.0028,0 -0.05495,-0.046858 -0.115809,-0.1041281 z"
       style="fill:#ff142a;stroke-width:0.00573301;fill-opacity:1" />
  </g>
</svg>
