<?xml version="1.0" encoding="UTF-8" standalone="no"?>
<svg
   xmlns:dc="http://purl.org/dc/elements/1.1/"
   xmlns:cc="http://creativecommons.org/ns#"
   xmlns:rdf="http://www.w3.org/1999/02/22-rdf-syntax-ns#"
   xmlns:svg="http://www.w3.org/2000/svg"
   xmlns="http://www.w3.org/2000/svg"
   xmlns:xlink="http://www.w3.org/1999/xlink"
   xmlns:sodipodi="http://sodipodi.sourceforge.net/DTD/sodipodi-0.dtd"
   xmlns:inkscape="http://www.inkscape.org/namespaces/inkscape"
   sodipodi:docname="spotify-only.svg"
   inkscape:version="1.0 (4035a4fb49, 2020-05-01)"
   id="svg8"
   version="1.1"
   viewBox="0 0 13.229167 13.229167"
   height="13.229167mm"
   width="13.229167mm">
  <defs
     id="defs2">
    <linearGradient
       id="WhiteTransparent"
       gradientUnits="userSpaceOnUse">
      <stop
         style="stop-color:white;stop-opacity:1"
         offset="0"
         id="stop7" />
      <stop
         style="stop-color:white;stop-opacity:0"
         offset="1"
         id="stop9" />
    </linearGradient>
    <linearGradient
       id="BlackTransparent"
       gradientUnits="userSpaceOnUse">
      <stop
         style="stop-color:black;stop-opacity:1"
         offset="0"
         id="stop12" />
      <stop
         style="stop-color:black;stop-opacity:0"
         offset="1"
         id="stop14" />
    </linearGradient>
    <linearGradient
       gradientTransform="matrix(0.09833806,0,0,0.09833806,58.168849,0.74948923)"
       id="liquidShade"
       xlink:href="#BlackTransparent"
       x1="0"
       y1="128"
       x2="0"
       y2="64"
       gradientUnits="userSpaceOnUse" />
    <linearGradient
       id="liquidSpecular"
       xlink:href="#WhiteTransparent"
       x1="0"
       y1="128"
       x2="0"
       y2="76"
       gradientUnits="userSpaceOnUse" />
    <linearGradient
       id="sideSpecular"
       xlink:href="#WhiteTransparent"
       x1="80"
       y1="20"
       x2="60"
       y2="40"
       gradientUnits="userSpaceOnUse" />
    <linearGradient
       gradientTransform="matrix(0.09833806,0,0,0.09833806,58.168849,0.74948923)"
       id="IcecapTip"
       xlink:href="#WhiteTransparent"
       x1="60"
       y1="20"
       x2="90"
       y2="50"
       gradientUnits="userSpaceOnUse" />
    <linearGradient
       gradientTransform="matrix(0.09833806,0,0,0.09833806,58.168849,0.74948923)"
       id="shinySpecular"
       xlink:href="#WhiteTransparent"
       x1="33"
       y1="35"
       x2="58"
       y2="60"
       gradientUnits="userSpaceOnUse" />
    <clipPath
       clipPathUnits="userSpaceOnUse"
       id="clipoutline1">
      <path
         id="outline1"
         d="M 54.1,12.5 L 12.9,54.7 C -2.7,70.3 23,69 32.3,74.9 C 36.6,77.7 18.5,81.3 22.2,85 C 25.8,88.7 43.9,92.1 47.5,95.7 C 51.1,99.4 40.2,103.3 43.8,107 C 47.3,110.7 55.7,107.2 57.2,115.6 C 58.3,121.8 72.6,118.7 79,113.4 C 83,110 72.1,110 75.7,106.3 C 84.7,97.2 92.7,102.2 96,93.8 C 97.8,89.3 82.4,86.1 86.5,83.2 C 96.3,76.3 132.3,72.8 115.7,56.2 L 73,12.5 C 67.7,7.5 59,7.5 54.1,12.5 z M 44.2,77.2 C 45.1,77.2 75,81.2 63.5,84.3 C 59.1,85.5 38.9,77.2 44.2,77.2 z M 101.4,93.8 C 101.4,95.9 117.7,97.1 116.8,93.3 C 115.5,86.9 103.2,87.4 101.4,93.8 z M 31.9,104.9 C 35.6,108.1 41.2,104.2 43,99.7 C 39.4,95 26.1,100 31.9,104.9 z M 99.4,98.2 C 94.8,102.4 100.2,106.8 104.7,103.9 C 105.9,103.1 104.6,99.2 99.4,98.2 z " />
    </clipPath>
    <filter
       id="ShadowBlur"
       filterUnits="userSpaceOnUse"
       x="0"
       y="0">
      <feGaussianBlur
         in="SourceAlpha"
         stdDeviation="3"
         result="blur"
         id="feGaussianBlur24" />
    </filter>
  </defs>
  <sodipodi:namedview
     showgrid="false"
     inkscape:document-rotation="0"
     inkscape:current-layer="svg8"
     inkscape:document-units="mm"
     inkscape:cy="35.766577"
     inkscape:cx="34.037518"
     inkscape:zoom="8"
     inkscape:pageshadow="2"
     inkscape:pageopacity="0.0"
     borderopacity="1.0"
     bordercolor="#666666"
     pagecolor="#ffffff"
     id="base" />
  <metadata
     id="metadata5">
    <rdf:RDF>
      <cc:Work
         rdf:about="">
        <dc:format>image/svg+xml</dc:format>
        <dc:type
           rdf:resource="http://purl.org/dc/dcmitype/StillImage" />
        <dc:title></dc:title>
      </cc:Work>
    </rdf:RDF>
  </metadata>
  <g
     transform="translate(-5.50737,-3.4897048)"
     id="layer1"
     inkscape:groupmode="layer"
     inkscape:label="Layer 1">
    <g
       transform="matrix(0.65504243,0,0,0.65448611,4.3069589,5.2774594)"
       id="g849">
      <path
         id="path853"
         d="M 10.852229,17.454218 C 8.2846194,17.063049 6.4143189,16.160435 4.775404,14.52152 3.3461228,13.092239 2.3736373,11.266002 1.9696545,9.2525842 c -0.1827789,-0.9109549 -0.1827789,-2.8662933 0,-3.7772482 0.7246019,-3.6113579 3.3029622,-6.5652992 6.7330828,-7.7138683 1.1486341,-0.384618 1.8588077,-0.4930068 3.2302267,-0.4930068 1.371419,0 2.081593,0.1083888 3.230227,0.4930068 2.959744,0.9910642 5.381202,3.412522 6.372266,6.3722655 0.384617,1.1486341 0.493006,1.8588078 0.493006,3.2302269 0,0.8801287 -0.03759,1.4171275 -0.132189,1.8886241 -0.813421,4.0540228 -3.883995,7.1726328 -7.913639,8.0374398 -0.652653,0.140066 -2.613637,0.242922 -3.130406,0.164194 z m 5.540865,-5.439436 c 0.238539,-0.16708 0.320962,-0.423294 0.224859,-0.698977 -0.095,-0.272505 -0.754564,-0.682571 -1.73109,-1.076253 C 12.66921,9.3455171 10.253365,9.1664153 7.3561356,9.6812532 6.4831732,9.836379 6.2023681,9.9712652 6.0887854,10.290033 c -0.088778,0.249154 0.055101,0.599586 0.2999851,0.730644 0.1561636,0.08358 0.2804859,0.07988 0.7963199,-0.02365 1.2973155,-0.260388 1.840561,-0.312675 3.2199376,-0.30992 1.149413,0.0023 1.551769,0.03217 2.136262,0.15862 1.087813,0.235335 1.737783,0.460471 2.559347,0.886505 0.805845,0.417881 1.029453,0.466766 1.292457,0.28255 z M 17.681026,9.2514402 C 18.012722,8.9197445 17.977385,8.3052569 17.611639,8.0448228 16.823515,7.4836288 14.895584,6.7313832 13.474926,6.4307472 11.205485,5.9504944 8.3141756,6.0126687 6.4592529,6.5816112 5.9459617,6.7390482 5.7737685,6.8697233 5.671576,7.1793697 5.5648634,7.5027124 5.6662462,7.8116023 5.9531589,8.0372874 6.1878793,8.2219188 6.3962391,8.221289 7.1295821,8.0337322 10.008028,7.2975493 13.679965,7.7079016 16.144106,9.0411372 c 0.637104,0.3447084 0.792545,0.3995204 1.070451,0.3774622 0.191549,-0.015204 0.383188,-0.083877 0.466469,-0.1671592 z M 18.915722,6.1751338 C 19.210636,5.9953121 19.320113,5.7974175 19.325113,5.4351028 19.331262,4.989804 19.145793,4.7258041 18.620408,4.4319916 17.340963,3.716485 15.421312,3.1173352 13.41287,2.8066461 12.529907,2.6700591 12.02374,2.6407041 10.516828,2.6386908 8.5567195,2.6360724 7.6622146,2.7263305 6.2414702,3.0700881 5.3927678,3.2754368 5.1539496,3.4236137 5.0084241,3.8351424 4.8725815,4.2192894 4.9437763,4.4890209 5.2660857,4.8113298 5.5061478,5.0513917 5.5463555,5.0651186 5.9138603,5.0324788 6.1293644,5.0133386 6.704592,4.9110459 7.1921437,4.8051607 10.537016,4.0787342 15.271734,4.6587836 17.709309,6.0936173 c 0.445772,0.2623944 0.863478,0.2906188 1.206413,0.081517 z"
         style="fill:#1dd55e;stroke-width:0.0745335" />
      <path
         id="path851"
         d="m 15.100637,11.732231 c -0.821564,-0.426034 -1.471534,-0.65117 -2.559347,-0.886505 -0.584493,-0.126448 -0.986849,-0.156323 -2.136262,-0.15862 -1.3793766,-0.0028 -1.9226221,0.04953 -3.2199376,0.30992 -0.515834,0.103535 -0.6401563,0.107227 -0.7963199,0.02365 C 6.1438865,10.889619 6.0000075,10.539187 6.0887854,10.290033 6.2023681,9.9712652 6.4831732,9.836379 7.3561356,9.6812532 10.253365,9.1664153 12.66921,9.3455171 14.886863,10.239552 c 0.976526,0.393682 1.636094,0.803748 1.73109,1.076253 0.0961,0.275683 0.01368,0.531897 -0.224859,0.698977 -0.263004,0.184215 -0.486612,0.13533 -1.292457,-0.282551 z M 16.144106,9.0411365 C 13.679965,7.7079008 10.008028,7.2975485 7.1295821,8.0337314 6.8068014,8.1162847 6.4519762,8.1838285 6.3410817,8.1838285 c -0.253698,0 -0.546594,-0.2263888 -0.6660683,-0.5148252 C 5.5590579,7.3890622 5.6825366,6.9622268 5.9255366,6.8030077 6.693433,6.2998627 9.8212502,5.9595346 11.788076,6.1651233 c 1.760013,0.183971 3.472775,0.6624953 4.874261,1.3618087 0.959478,0.4787599 1.143262,0.6148566 1.220073,0.9034935 0.138144,0.5191138 -0.15115,0.9471611 -0.667853,0.9881731 -0.277906,0.022058 -0.433347,-0.032754 -1.070451,-0.3774621 z M 17.709309,6.0936173 C 15.271734,4.6587836 10.537016,4.0787342 7.1921437,4.8051607 6.704592,4.9110459 6.1293644,5.0133386 5.9138603,5.0324788 5.5463555,5.0651186 5.5061478,5.0513917 5.2660857,4.8113298 4.9437763,4.4890209 4.8725815,4.2192894 5.0084241,3.8351424 5.1539496,3.4236137 5.3927678,3.2754368 6.2414702,3.0700881 7.6622146,2.7263305 8.5567195,2.6360721 10.516828,2.6386908 c 1.506912,0.00201 2.013079,0.031368 2.896042,0.1679553 2.008442,0.3106891 3.928093,0.9098389 5.207538,1.6253455 0.525385,0.2938125 0.710851,0.5578124 0.704705,1.0031112 -0.01104,0.7999925 -0.817258,1.1285629 -1.615804,0.6585145 z"
         style="fill:#181413;stroke-width:0.0745335" />
    </g>
  </g>
  <style
     type="text/css"
     id="style26">
	.specularity {opacity:0.5;}
	.low-specularity {opacity:0.25;}
	.full-specularity {opacity:1;}
	.black {fill:#000000;}
	.white {fill:#ffffff;}
	.outline-big {stroke-width:16;stroke:none;opacity:0.1;fill:none;}
	.outline-small {stroke-width:8;stroke:none;opacity:0.2;fill:none;}
	.stroke-highlight {fill:none;stroke:none;opacity:0.2;}
       	.base-shadow 	{fill:black;opacity:75;}
	</style>
</svg>
