<?xml version="1.0" encoding="UTF-8" standalone="no"?>
<svg
   xmlns:dc="http://purl.org/dc/elements/1.1/"
   xmlns:cc="http://creativecommons.org/ns#"
   xmlns:rdf="http://www.w3.org/1999/02/22-rdf-syntax-ns#"
   xmlns:svg="http://www.w3.org/2000/svg"
   xmlns="http://www.w3.org/2000/svg"
   xmlns:xlink="http://www.w3.org/1999/xlink"
   xmlns:sodipodi="http://sodipodi.sourceforge.net/DTD/sodipodi-0.dtd"
   xmlns:inkscape="http://www.inkscape.org/namespaces/inkscape"
   width="13.229167mm"
   height="13.229167mm"
   viewBox="0 0 13.229167 13.229167"
   version="1.1"
   id="svg8"
   inkscape:version="1.0 (4035a4fb49, 2020-05-01)"
   sodipodi:docname="vscode.svg">
  <defs
     id="defs2">
    <linearGradient
       gradientUnits="userSpaceOnUse"
       id="WhiteTransparent">
      <stop
         id="stop7"
         offset="0"
         style="stop-color:white;stop-opacity:1" />
      <stop
         id="stop9"
         offset="1"
         style="stop-color:white;stop-opacity:0" />
    </linearGradient>
    <linearGradient
       gradientUnits="userSpaceOnUse"
       id="BlackTransparent">
      <stop
         id="stop12"
         offset="0"
         style="stop-color:black;stop-opacity:1" />
      <stop
         id="stop14"
         offset="1"
         style="stop-color:black;stop-opacity:0" />
    </linearGradient>
    <linearGradient
       gradientUnits="userSpaceOnUse"
       y2="64"
       x2="0"
       y1="128"
       x1="0"
       xlink:href="#BlackTransparent"
       id="liquidShade"
       gradientTransform="matrix(0.09833806,0,0,0.09833806,58.168849,0.74948923)" />
    <linearGradient
       gradientUnits="userSpaceOnUse"
       y2="76"
       x2="0"
       y1="128"
       x1="0"
       xlink:href="#WhiteTransparent"
       id="liquidSpecular" />
    <linearGradient
       gradientUnits="userSpaceOnUse"
       y2="40"
       x2="60"
       y1="20"
       x1="80"
       xlink:href="#WhiteTransparent"
       id="sideSpecular" />
    <linearGradient
       gradientUnits="userSpaceOnUse"
       y2="50"
       x2="90"
       y1="20"
       x1="60"
       xlink:href="#WhiteTransparent"
       id="IcecapTip"
       gradientTransform="matrix(0.09833806,0,0,0.09833806,58.168849,0.74948923)" />
    <linearGradient
       gradientUnits="userSpaceOnUse"
       y2="60"
       x2="58"
       y1="35"
       x1="33"
       xlink:href="#WhiteTransparent"
       id="shinySpecular"
       gradientTransform="matrix(0.09833806,0,0,0.09833806,58.168849,0.74948923)" />
    <clipPath
       id="clipoutline1"
       clipPathUnits="userSpaceOnUse">
      <path
         d="M 54.1,12.5 L 12.9,54.7 C -2.7,70.3 23,69 32.3,74.9 C 36.6,77.7 18.5,81.3 22.2,85 C 25.8,88.7 43.9,92.1 47.5,95.7 C 51.1,99.4 40.2,103.3 43.8,107 C 47.3,110.7 55.7,107.2 57.2,115.6 C 58.3,121.8 72.6,118.7 79,113.4 C 83,110 72.1,110 75.7,106.3 C 84.7,97.2 92.7,102.2 96,93.8 C 97.8,89.3 82.4,86.1 86.5,83.2 C 96.3,76.3 132.3,72.8 115.7,56.2 L 73,12.5 C 67.7,7.5 59,7.5 54.1,12.5 z M 44.2,77.2 C 45.1,77.2 75,81.2 63.5,84.3 C 59.1,85.5 38.9,77.2 44.2,77.2 z M 101.4,93.8 C 101.4,95.9 117.7,97.1 116.8,93.3 C 115.5,86.9 103.2,87.4 101.4,93.8 z M 31.9,104.9 C 35.6,108.1 41.2,104.2 43,99.7 C 39.4,95 26.1,100 31.9,104.9 z M 99.4,98.2 C 94.8,102.4 100.2,106.8 104.7,103.9 C 105.9,103.1 104.6,99.2 99.4,98.2 z "
         id="outline1" />
    </clipPath>
    <filter
       y="0"
       x="0"
       filterUnits="userSpaceOnUse"
       id="ShadowBlur">
      <feGaussianBlur
         id="feGaussianBlur24"
         result="blur"
         stdDeviation="3"
         in="SourceAlpha" />
    </filter>
    <filter
       y="0"
       x="0"
       filterUnits="userSpaceOnUse"
       id="ShadowBlur-3">
      <feGaussianBlur
         id="feGaussianBlur24-5"
         result="blur"
         stdDeviation="3"
         in="SourceAlpha" />
    </filter>
    <clipPath
       id="clipoutline1-6"
       clipPathUnits="userSpaceOnUse">
      <path
         d="M 54.1,12.5 12.9,54.7 C -2.7,70.3 23,69 32.3,74.9 36.6,77.7 18.5,81.3 22.2,85 c 3.6,3.7 21.7,7.1 25.3,10.7 3.6,3.7 -7.3,7.6 -3.7,11.3 3.5,3.7 11.9,0.2 13.4,8.6 1.1,6.2 15.4,3.1 21.8,-2.2 4,-3.4 -6.9,-3.4 -3.3,-7.1 9,-9.1 17,-4.1 20.3,-12.5 1.8,-4.5 -13.6,-7.7 -9.5,-10.6 9.8,-6.9 45.8,-10.4 29.2,-27 L 73,12.5 c -5.3,-5 -14,-5 -18.9,0 z m -9.9,64.7 c 0.9,0 30.8,4 19.3,7.1 -4.4,1.2 -24.6,-7.1 -19.3,-7.1 z m 57.2,16.6 c 0,2.1 16.3,3.3 15.4,-0.5 -1.3,-6.4 -13.6,-5.9 -15.4,0.5 z m -69.5,11.1 c 3.7,3.2 9.3,-0.7 11.1,-5.2 -3.6,-4.7 -16.9,0.3 -11.1,5.2 z m 67.5,-6.7 c -4.6,4.2 0.8,8.6 5.3,5.7 1.2,-0.8 -0.1,-4.7 -5.3,-5.7 z"
         id="outline1-2" />
    </clipPath>
  </defs>
  <sodipodi:namedview
     id="base"
     pagecolor="#ffffff"
     bordercolor="#666666"
     borderopacity="1.0"
     inkscape:pageopacity="0.0"
     inkscape:pageshadow="2"
     inkscape:zoom="5.6568543"
     inkscape:cx="50.09826"
     inkscape:cy="32.294367"
     inkscape:document-units="mm"
     inkscape:current-layer="layer1"
     inkscape:document-rotation="0"
     showgrid="false" />
  <metadata
     id="metadata5">
    <rdf:RDF>
      <cc:Work
         rdf:about="">
        <dc:format>image/svg+xml</dc:format>
        <dc:type
           rdf:resource="http://purl.org/dc/dcmitype/StillImage" />
        <dc:title></dc:title>
      </cc:Work>
    </rdf:RDF>
  </metadata>
  <g
     style="display:inline"
     inkscape:label="Layer 1"
     inkscape:groupmode="layer"
     id="layer1"
     transform="translate(-5.50737,-3.4897048)">
    <g
       id="g1063"
       transform="matrix(0.04165936,0,0,0.04187263,9.1533577,19.195887)"
       style="display:inline">
      <path
         style="font-variation-settings:normal;opacity:1;vector-effect:none;fill:#3da9f2;fill-opacity:1;stroke:none;stroke-width:0.264583;stroke-linecap:butt;stroke-linejoin:miter;stroke-miterlimit:4;stroke-dasharray:none;stroke-dashoffset:0;stroke-opacity:1;stop-color:#000000;stop-opacity:1"
         d="m -35.920167,-217.39636 c -11.38555,11.38555 -23.76911,21.96994 -35.71875,32.76335 -4.93591,4.45823 -12.84306,9.4443 -15.11698,15.91998 -1.19999,3.41736 -0.98848,7.34563 0.66391,10.58333 1.78392,3.49541 5.28976,5.88301 8.10307,8.49022 6.77884,6.28174 14.90062,17.24157 25.4,13.80119 5.23214,-1.7145 9.93749,-6.69237 14.2875,-9.95468 9.92002,-7.44035 19.71331,-15.04976 29.63333,-22.48958 3.62691,-2.72018 7.22101,-5.48191 10.84792,-8.20209 0.95038,-0.71305 2.67414,-2.65192 3.96875,-2.04708 3.07314,1.43563 5.9182,5.37978 8.46667,7.62635 7.07548,6.23808 13.90226,12.75848 20.90208,19.08069 22.753639,20.55178 45.508859,41.14007 67.997917,61.981303 6.91435,6.40821 13.99937,12.63121 20.90208,19.05 5.85708,5.44777 10.9765,10.77913 19.31458,11.57288 6.10315,0.58208 11.67263,-2.89719 16.93334,-5.44248 9.75783,-4.72281 19.46804,-9.7155 29.36874,-14.12875 6.88182,-3.06652 13.5599,-6.59342 20.37292,-9.81075 4.12221,-1.94733 8.94027,-3.64596 12.43542,-6.63575 8.26029,-7.069673 7.14375,-17.093683 7.14375,-26.908133 v -60.325 -107.95001 -26.19375 c 0,-6.29497 0.35454,-12.45235 -3.19881,-17.99166 -3.64332,-5.68061 -10.01713,-8.03461 -15.85119,-10.78997 -9.63877,-4.55265 -19.29342,-9.14235 -28.83959,-13.88183 -7.45489,-3.70102 -15.04632,-7.12615 -22.48958,-10.8477 -4.6355,-2.31778 -9.95018,-5.40405 -15.34583,-4.91664 -8.94106,0.80767 -14.02186,6.34438 -20.37292,12.08079 -7.08818,6.40228 -14.08297,12.90785 -21.16666,19.31454 -21.500048,19.44554 -42.793978,39.11731 -64.293747,58.56287 -7.16995,6.48467 -14.34042,12.98654 -21.43125,19.55774 -3.33852,3.09377 -6.76196,7.1755 -10.58334,9.63586 -1.47664,0.95091 -3.12631,-1.05357 -4.23333,-1.88754 -3.70919,-2.79374 -7.39749,-5.61367 -11.1125,-8.39973 -10.27298,-7.70466 -20.41869,-15.57867 -30.69167,-23.28334 -4.86145,-3.64622 -9.6393,-8.68468 -15.875,-9.57765 -5.87645,-0.84137 -10.0159,3.11494 -14.02291,6.72121 -7.37942,6.64157 -21.0906,14.79683 -17.28489,26.50306 1.86487,5.73616 8.00375,9.575 12.2578,13.51729 8.9312,8.27644 17.95145,16.46608 26.9875,24.62769 3.49012,3.15224 7.38796,8.28992 11.64167,10.27377 m 186.531247,-71.70209 v 143.93334 c -3.31735,-1.65206 -6.29603,-4.55348 -9.26042,-6.78048 -5.93248,-4.45638 -11.87053,-8.9244 -17.72708,-13.48026 -14.93573,-11.61838 -30.350878,-22.62558 -45.243748,-34.29899 -5.48958,-4.30292 -11.08948,-8.4918 -16.66875,-12.67804 -1.14803,-0.86122 -5.50148,-3.16812 -5.50148,-4.71567 0,-1.55998 4.34843,-3.87721 5.50148,-4.74213 5.57927,-4.18624 11.17917,-8.37512 16.66875,-12.67804 16.0184,-12.55554 32.400868,-24.71975 48.683328,-36.93133 5.3131,-3.9849 10.56217,-8.05393 15.875,-12.03855 2.46989,-1.85261 4.90749,-4.2127 7.67292,-5.58985 z"
         id="path1003-6" />
      <path
         d="m 136.64813,-367.52973 c -4.31168,0.0524 -9.87422,2.28098 -16.99741,8.41809 -9e-4,8.2e-4 -0.002,0.002 -0.003,0.003 -5.64683,5.1487 -11.25934,10.33543 -16.92662,15.46107 -21.500047,19.44555 -42.793981,39.11728 -64.293747,58.56284 -7.16995,6.48467 -14.34042,12.98627 -21.43125,19.55746 -3.33852,3.09377 -6.76196,7.17574 -10.58334,9.6361 -0.26328,0.16955 -0.53179,0.24354 -0.80201,0.24857 -15.59069,14.16614 -28.22791,25.65291 -41.88995,38.07002 0.11938,0.0608 0.23868,0.12028 0.35863,0.17622 -11.38555,11.38555 -23.76911,21.96996 -35.71875,32.76337 -4.93591,4.45823 -12.84298,9.44429 -15.11691,15.91997 -1.19998,3.41735 -0.98834,7.34562 0.66405,10.58333 1.78392,3.49541 5.28955,5.88272 8.10286,8.48992 6.77884,6.28173 14.90062,17.2416 25.4,13.80122 5.23214,-1.7145 9.93749,-6.69212 14.2875,-9.95443 9.92002,-7.44035 19.71331,-15.04976 29.63333,-22.48958 3.62691,-2.72018 7.22101,-5.4819 10.84792,-8.20208 0.84553,-0.63439 2.30288,-2.23451 3.52588,-2.15491 l 0.0739,-0.0677 50.442403,-38.26898 c -0.0078,-0.0482 -0.0124,-0.0958 -0.0124,-0.14263 0,-1.55998 4.348424,-3.8769 5.501473,-4.74183 5.579268,-4.18623 11.179169,-8.37537 16.66875,-12.67829 16.018398,-12.55554 32.400871,-24.7195 48.683331,-36.93108 5.3131,-3.98489 10.56217,-8.05392 15.875,-12.03854 2.46989,-1.85261 4.90749,-4.21268 7.67292,-5.58984 l -0.22014,-65.09215 c 0,0 -2.96363,-13.46969 -13.74283,-13.33872 z"
         style="font-variation-settings:normal;opacity:1;vector-effect:none;fill:#3082b9;fill-opacity:1;stroke:none;stroke-width:0.264583;stroke-linecap:butt;stroke-linejoin:miter;stroke-miterlimit:4;stroke-dasharray:none;stroke-dashoffset:0;stroke-opacity:1;stop-color:#000000;stop-opacity:1"
         id="path1003" />
      <path
         d="m -57.107509,-299.15364 c -5.043159,0.0117 -8.783394,3.56758 -12.414747,6.83576 -7.379419,6.64157 -21.090958,14.79654 -17.28525,26.50277 1.864871,5.73616 8.004117,9.57523 12.258167,13.51752 8.931201,8.27644 17.95145,16.46583 26.9875,24.62744 3.490121,3.15224 7.387957,8.28994 11.641666,10.27379 -0.182655,0.18266 -0.367707,0.36346 -0.55087,0.5457 11.93401,10.8481 26.7578833,24.32654 42.0258575,38.21008 0.2043403,-0.009 0.4040664,0.0204 0.593762,0.10903 3.0731301,1.43563 5.9182075,5.37984 8.4666665,7.62641 7.07548,6.23808 13.902264,12.75828 20.902083,19.08049 22.753643,20.55178 45.508867,41.14001 67.997924,61.981229 6.51698,6.039934 13.18368,11.917341 19.70836,17.947224 17.41577,11.955828 27.38747,-8.675441 27.38747,-8.675441 v -64.593472 c -3.31735,-1.65206 -6.29602,-4.55346 -9.26042,-6.78046 -5.93248,-4.45638 -11.87053,-8.92446 -17.72708,-13.48032 -14.93573,-11.61838 -30.350883,-22.62527 -45.243749,-34.29868 -5.489575,-4.30292 -11.089481,-8.49206 -16.66875,-12.6783 -0.862171,-0.64676 -3.531738,-2.10847 -4.807982,-3.45198 l -51.9621999,-39.89007 -0.026871,-0.0279 c -1.0113645,-0.37097 -1.9940852,-1.44799 -2.7342015,-2.00556 -3.709199,-2.79374 -7.3974986,-5.61394 -11.1124999,-8.4 -10.2729897,-7.70466 -20.4186867,-15.57867 -30.6916667,-23.28334 -4.861448,-3.64622 -9.639299,-8.68474 -15.874999,-9.57771 -0.550918,-0.0789 -1.086464,-0.11541 -1.60817,-0.1142 z"
         style="font-variation-settings:normal;opacity:1;vector-effect:none;fill:#2c91d5;fill-opacity:1;stroke:none;stroke-width:0.264583;stroke-linecap:butt;stroke-linejoin:miter;stroke-miterlimit:4;stroke-dasharray:none;stroke-dashoffset:0;stroke-opacity:1;stop-color:#000000;stop-opacity:1"
         id="path1003-6-7" />
    </g>
  </g>
  <style
     id="style26"
     type="text/css">
	.specularity {opacity:0.5;}
	.low-specularity {opacity:0.25;}
	.full-specularity {opacity:1;}
	.black {fill:#000000;}
	.white {fill:#ffffff;}
	.outline-big {stroke-width:16;stroke:none;opacity:0.1;fill:none;}
	.outline-small {stroke-width:8;stroke:none;opacity:0.2;fill:none;}
	.stroke-highlight {fill:none;stroke:none;opacity:0.2;}
       	.base-shadow 	{fill:black;opacity:75;}
	</style>
</svg>
